<svg width="14" height="20" viewBox="0 0 14 20" fill="none" xmlns="http://www.w3.org/2000/svg">
<path d="M11.73 7.07808C12.366 6.68491 12.8564 6.09503 13.1268 5.39793C13.3972 4.70083 13.4329 3.93456 13.2284 3.21535C13.0239 2.49615 12.5904 1.86326 11.9937 1.4127C11.397 0.962147 10.6696 0.718509 9.92188 0.71875H4.07812C3.33042 0.718509 2.60303 0.962147 2.00631 1.4127C1.4096 1.86326 0.976116 2.49615 0.771631 3.21535C0.567147 3.93456 0.602817 4.70083 0.873232 5.39793C1.14365 6.09503 1.63405 6.68491 2.27004 7.07808C1.77189 7.38582 1.36069 7.81581 1.0755 8.3272C0.790315 8.8386 0.640617 9.41442 0.640625 9.99996C0.640633 10.5855 0.790349 11.1613 1.07555 11.6727C1.36075 12.1841 1.77196 12.6141 2.27012 12.9218C1.76089 13.2369 1.34285 13.6797 1.05742 14.2062C0.771988 14.7326 0.629074 15.3245 0.642839 15.9232C0.656605 16.5219 0.826571 17.1067 1.1359 17.6194C1.44522 18.1322 1.88317 18.5553 2.40635 18.8467C2.92952 19.1381 3.51976 19.2878 4.11859 19.2808C4.71741 19.2739 5.30402 19.1106 5.82031 18.8072C6.33659 18.5037 6.76463 18.0706 7.06199 17.5508C7.35936 17.031 7.51573 16.4425 7.51562 15.8436V12.4517C7.86049 12.7905 8.27297 13.0527 8.72612 13.2212C9.17926 13.3897 9.66285 13.4606 10.1453 13.4294C10.6277 13.3982 11.0982 13.2656 11.5258 13.0401C11.9535 12.8146 12.3288 12.5015 12.6271 12.1211C12.9255 11.7407 13.1402 11.3016 13.2572 10.8325C13.3742 10.3634 13.391 9.87493 13.3063 9.39895C13.2216 8.92297 13.0374 8.47022 12.7658 8.07029C12.4942 7.67036 12.1412 7.33226 11.73 7.07808ZM12.3281 4.15625C12.3274 4.79391 12.0739 5.40528 11.6231 5.85632C11.1724 6.30737 10.5612 6.56131 9.92355 6.56246L9.92188 6.56241L9.91856 6.5625L7.51562 6.56241V1.75H9.92188C10.5598 1.75072 11.1715 2.00446 11.6226 2.45556C12.0737 2.90667 12.3274 3.51829 12.3281 4.15625ZM1.67188 4.15625C1.67259 3.51829 1.92634 2.90667 2.37744 2.45556C2.82854 2.00446 3.44017 1.75072 4.07812 1.75H6.48438V6.56241H4.07812L4.07649 6.56246C3.43882 6.56131 2.82762 6.30738 2.37687 5.85633C1.92612 5.40529 1.6726 4.79392 1.67188 4.15625ZM1.67188 9.99991C1.6726 9.36224 1.92612 8.75087 2.37687 8.29983C2.82762 7.84878 3.43882 7.59485 4.07649 7.59371L4.07812 7.59375L6.48438 7.59369V12.4061L4.07812 12.4062C3.44017 12.4054 2.82854 12.1517 2.37744 11.7006C1.92634 11.2495 1.67259 10.6379 1.67188 9.99991ZM4.07812 18.2498C3.76197 18.2501 3.44885 18.1881 3.15668 18.0672C2.86452 17.9464 2.59902 17.7692 2.37536 17.5458C2.15171 17.3223 1.97429 17.057 1.85324 16.7649C1.73219 16.4728 1.66988 16.1598 1.66988 15.8436C1.66988 15.5275 1.73219 15.2144 1.85324 14.9223C1.97429 14.6303 2.15171 14.3649 2.37536 14.1415C2.59902 13.918 2.86452 13.7408 3.15668 13.62C3.44885 13.4992 3.76197 13.4371 4.07812 13.4374L6.48438 13.4374V15.8436C6.48365 16.4816 6.2299 17.0932 5.7788 17.5443C5.32769 17.9954 4.71608 18.2491 4.07812 18.2498ZM9.92188 12.4062C9.28412 12.406 8.67252 12.1526 8.22146 11.7017C7.77041 11.2509 7.5168 10.6394 7.51636 10.0016C7.51592 9.36385 7.76869 8.75201 8.21912 8.30051C8.66955 7.84902 9.2808 7.59481 9.91856 7.59375H9.92188L9.92351 7.59371C10.5613 7.59455 11.1726 7.84854 11.6232 8.29988C12.0738 8.75122 12.3268 9.36299 12.3266 10.0008C12.3264 10.6385 12.073 11.2501 11.6221 11.7011C11.1712 12.1522 10.5596 12.4058 9.92188 12.4062Z" fill="#F56911"/>
</svg>
