<svg width="22" height="22" viewBox="0 0 22 22" fill="none" xmlns="http://www.w3.org/2000/svg">
<path fill-rule="evenodd" clip-rule="evenodd" d="M7.39271 4.64097H9.68444L12.9798 15.6814H10.9892L10.1696 12.5366H6.95779L6.12139 15.6814H4.36495L7.39271 5.15954V4.64097ZM9.7179 10.914L8.5804 6.24686L7.40944 10.914H9.7179ZM16.3923 7.47649H14.5857V15.6814H16.3923V7.47649ZM15.4658 4.28874C14.8805 4.28874 14.406 4.75777 14.406 5.33635C14.406 5.91493 14.8805 6.38396 15.4658 6.38396C16.0511 6.38396 16.5256 5.91493 16.5256 5.33635C16.5256 4.75777 16.0511 4.28874 15.4658 4.28874ZM22 22H0V0H22V22Z" fill="#F56911"/>
</svg>
