<svg width="23" height="23" viewBox="0 0 23 23" fill="none" xmlns="http://www.w3.org/2000/svg">
<path d="M0.785156 0.785156V22.2137H22.2137V0.785156H0.785156ZM11.2271 11.7182C10.5588 12.3869 9.50837 12.7003 8.32176 12.7003C8.00837 12.7003 7.72176 12.6864 7.50346 12.6459V16.1102H5.83962V7.04051C6.43962 6.93114 7.27176 6.84944 8.40391 6.84944C9.63159 6.84944 10.5316 7.10882 11.1182 7.59944C11.6637 8.04944 12.0182 8.77221 12.0182 9.63159C12.0177 10.5044 11.7454 11.2271 11.2271 11.7182ZM14.4588 16.2463C13.6548 16.2463 12.932 16.0557 12.4405 15.7829L12.7673 14.5686C13.149 14.8012 13.8722 15.0459 14.4722 15.0459C15.2088 15.0459 15.5356 14.7454 15.5356 14.3097C15.5356 13.8597 15.2633 13.628 14.4454 13.3414C13.1494 12.891 12.6035 12.1816 12.6173 11.4048C12.6173 10.232 13.586 9.31775 15.1267 9.31775C15.8637 9.31775 16.5044 9.50882 16.886 9.71328L16.5588 10.8999C16.2727 10.7365 15.7405 10.5182 15.1544 10.5182C14.5539 10.5182 14.2271 10.8048 14.2271 11.2142C14.2271 11.6369 14.541 11.8414 15.3869 12.1414C16.5869 12.578 17.1459 13.1914 17.1597 14.174C17.1597 15.3735 16.2186 16.2463 14.4588 16.2463ZM8.47176 8.13158C8.00792 8.13158 7.68069 8.17266 7.50346 8.21328V11.3231C7.70792 11.3776 7.98069 11.3914 8.32176 11.3914C9.57667 11.3914 10.3401 10.7776 10.3401 9.69989C10.3401 8.67712 9.63114 8.13158 8.47176 8.13158Z" fill="#F56911"/>
</svg>
