<svg width="22" height="16" viewBox="0 0 22 16" fill="none" xmlns="http://www.w3.org/2000/svg">
<path d="M20.75 0.499465H1.25H1.19C1.13774 0.492366 1.08476 0.492366 1.0325 0.499465L0.905 0.551965C0.864198 0.571619 0.826334 0.596861 0.7925 0.626965C0.749831 0.655982 0.711887 0.691397 0.68 0.731965L0.635 0.776965C0.632176 0.799377 0.632176 0.822054 0.635 0.844465C0.610502 0.889943 0.59041 0.937661 0.575 0.986965C0.543528 1.04668 0.518391 1.10952 0.5 1.17447V1.24947V14.7495C0.5 14.9484 0.579018 15.1391 0.71967 15.2798C0.860322 15.4204 1.05109 15.4995 1.25 15.4995H20.75C20.9489 15.4995 21.1397 15.4204 21.2803 15.2798C21.421 15.1391 21.5 14.9484 21.5 14.7495V1.24947C21.5 1.05055 21.421 0.859788 21.2803 0.719135C21.1397 0.578483 20.9489 0.499465 20.75 0.499465ZM11 7.10697L3.65 1.99947H19.3175L11 7.10697ZM2 13.9995V2.68197L10.5725 8.61446C10.6159 8.63994 10.661 8.66249 10.7075 8.68196H10.7675C10.8412 8.71588 10.9196 8.73863 11 8.74946C11.1067 8.74662 11.2115 8.72106 11.3075 8.67447H11.36L20 3.34197V13.9995H2Z" fill="#001DC4"/>
</svg>
