<svg width="18" height="24" viewBox="0 0 18 24" fill="none" xmlns="http://www.w3.org/2000/svg">
<path d="M9 0C4.44356 0 0.75 3.69356 0.75 8.25C0.75 12.8064 9 24 9 24C9 24 17.25 12.8064 17.25 8.25C17.25 3.69356 13.5564 0 9 0ZM2.25 8.25C2.25 4.52775 5.27775 1.5 9 1.5C12.7222 1.5 15.75 4.52775 15.75 8.25C15.75 10.8427 11.9985 17.1021 9 21.4196C6.0015 17.1021 2.25 10.8427 2.25 8.25ZM9 4.5C6.92869 4.5 5.25 6.17869 5.25 8.25C5.25 10.3213 6.92869 12 9 12C11.0713 12 12.75 10.3213 12.75 8.25C12.75 6.17869 11.0713 4.5 9 4.5ZM9 10.5C7.75931 10.5 6.75 9.49069 6.75 8.25C6.75 7.00931 7.75931 6 9 6C10.2407 6 11.25 7.00931 11.25 8.25C11.25 9.49069 10.2407 10.5 9 10.5Z" fill="#001DC4"/>
</svg>
