<svg width="22" height="22" viewBox="0 0 22 22" fill="none" xmlns="http://www.w3.org/2000/svg">
<path d="M21.5846 10.0181L11.9775 0.416038C11.4261 -0.138679 10.5275 -0.138679 9.97202 0.416038L7.98102 2.41013L10.5124 4.93764C11.103 4.74104 11.7767 4.87302 12.2421 5.3425C12.7151 5.81542 12.8471 6.49524 12.6471 7.08227L15.0822 9.52041C15.6728 9.31626 16.3534 9.44892 16.8223 9.92115C17.485 10.5797 17.485 11.6465 16.8223 12.3057C16.1636 12.9642 15.1001 12.9642 14.4408 12.3057C13.9465 11.8115 13.8213 11.0815 14.0681 10.4766L11.787 8.20682V14.1891C11.9479 14.2682 12.1019 14.3754 12.2346 14.5081C12.8898 15.1707 12.8898 16.2334 12.2346 16.8926C11.576 17.5511 10.5048 17.5511 9.84277 16.8926C9.18414 16.2341 9.18414 15.1707 9.84277 14.5081C10.0112 14.3431 10.1975 14.2214 10.3976 14.1396V8.10028C10.201 8.01436 10.0105 7.89613 9.8462 7.73184C9.34845 7.23418 9.22677 6.50418 9.48458 5.89172L6.99927 3.39309L0.410953 9.97683C-0.136984 10.5281 -0.136984 11.4265 0.410953 11.9819L10.0181 21.584C10.5729 22.1387 11.468 22.1387 12.0235 21.584L21.5839 12.0252C22.1387 11.4739 22.1387 10.5755 21.5839 10.0201L21.5846 10.0181Z" fill="#001DC4"/>
</svg>
