<svg width="26" height="16" viewBox="0 0 26 16" fill="none" xmlns="http://www.w3.org/2000/svg">
<path d="M0.526855 7.66406C0.526855 6.97559 0.578125 6.32861 0.680664 5.72314C0.788086 5.11279 0.932129 4.54883 1.11279 4.03125C1.29346 3.51855 1.50342 3.0498 1.74268 2.625C1.98682 2.2002 2.24316 1.82422 2.51172 1.49707C2.78027 1.16992 3.05615 0.894043 3.33936 0.669434C3.62744 0.439941 3.90576 0.26416 4.17432 0.14209L4.56982 1.25537C4.41357 1.37256 4.25732 1.51416 4.10107 1.68018C3.94482 1.84619 3.79102 2.03662 3.63965 2.25146C3.44434 2.52979 3.26123 2.85938 3.09033 3.24023C2.92432 3.62109 2.77783 4.03613 2.65088 4.48535C2.53857 4.91992 2.44824 5.40088 2.37988 5.92822C2.31152 6.45557 2.27734 7.0293 2.27734 7.64941V7.83984C2.27734 8.4502 2.30908 9.01416 2.37256 9.53174C2.44092 10.0493 2.51416 10.4619 2.59229 10.7695C2.69971 11.1992 2.82422 11.5972 2.96582 11.9634C3.1123 12.3296 3.26855 12.6494 3.43457 12.9229C3.61035 13.2207 3.7959 13.4795 3.99121 13.6992C4.18652 13.9189 4.37939 14.1021 4.56982 14.2485L4.17432 15.3472C3.90576 15.2251 3.62744 15.0493 3.33936 14.8198C3.05615 14.5903 2.78027 14.312 2.51172 13.9849C2.24316 13.6626 1.98682 13.2891 1.74268 12.8643C1.50342 12.4395 1.29346 11.9683 1.11279 11.4507C0.932129 10.938 0.788086 10.3789 0.680664 9.77344C0.578125 9.16797 0.526855 8.51855 0.526855 7.8252V7.66406ZM7.99961 10.8208C7.99961 10.4448 8.12412 10.1274 8.37314 9.86865C8.62217 9.60498 8.96885 9.47314 9.41318 9.47314C9.85264 9.47314 10.1969 9.60254 10.4459 9.86133C10.6998 10.1201 10.8268 10.4399 10.8268 10.8208C10.8268 11.2017 10.6974 11.519 10.4386 11.7729C10.1847 12.022 9.84287 12.1465 9.41318 12.1465C8.97861 12.1465 8.63438 12.0195 8.38047 11.7656C8.12656 11.5117 7.99961 11.1968 7.99961 10.8208ZM15.8166 5.48145L12.9455 4.77832L13.4289 3.27686L16.1755 4.49268L15.9118 1.33594H17.5158L17.2302 4.54395L19.9548 3.3501L20.4382 4.88086L17.5231 5.54736L19.486 7.91309L18.1823 8.85791L16.6369 6.1333L15.0915 8.77734L13.7805 7.87646L15.8166 5.48145ZM25.179 7.8252C25.179 8.49414 25.1253 9.12891 25.0179 9.72949C24.9104 10.3252 24.764 10.8818 24.5784 11.3994C24.3929 11.917 24.1756 12.3882 23.9266 12.813C23.6824 13.2427 23.4212 13.6235 23.1429 13.9556C22.8646 14.2925 22.5789 14.5781 22.2859 14.8125C21.993 15.0469 21.7073 15.2251 21.429 15.3472L21.0408 14.2485C21.2117 14.1216 21.3826 13.9629 21.5535 13.7725C21.7244 13.5869 21.8904 13.3696 22.0516 13.1206C22.242 12.8276 22.4153 12.4956 22.5716 12.1245C22.7327 11.7534 22.8743 11.3384 22.9964 10.8794C23.0989 10.4595 23.1795 9.99561 23.2381 9.48779C23.3016 8.97998 23.3333 8.43066 23.3333 7.83984V7.64941C23.3333 7.07324 23.3016 6.53613 23.2381 6.03809C23.1795 5.54004 23.0989 5.08105 22.9964 4.66113C22.8646 4.13867 22.7034 3.66992 22.513 3.25488C22.3274 2.83984 22.1297 2.48096 21.9197 2.17822C21.7781 1.97803 21.6316 1.7998 21.4803 1.64355C21.3338 1.48242 21.1873 1.3457 21.0408 1.2334L21.429 0.14209C21.7073 0.26416 21.993 0.442383 22.2859 0.676758C22.5789 0.911133 22.8646 1.19434 23.1429 1.52637C23.4212 1.86328 23.6824 2.24658 23.9266 2.67627C24.1756 3.10107 24.3929 3.57227 24.5784 4.08984C24.764 4.60742 24.9104 5.1665 25.0179 5.76709C25.1253 6.36279 25.179 6.99512 25.179 7.66406V7.8252Z" fill="#001DC4"/>
</svg>
