<svg width="22" height="20" viewBox="0 0 22 20" fill="none" xmlns="http://www.w3.org/2000/svg">
<path d="M6.44531 12.5689L10.9571 15.1737L15.4688 12.5689V7.35921L10.9571 4.75441L6.44531 7.35921V12.5689ZM0.13615 10.5652L5.12857 19.1935C5.30983 19.5077 5.64492 19.6634 6.00753 19.6634H15.9924C16.3551 19.6634 16.6902 19.5028 16.8716 19.1888L21.864 10.5745C22.0453 10.2604 22.0453 9.86398 21.864 9.54985L16.8716 0.883577C16.6902 0.569538 16.3551 0.337891 15.9924 0.337891H6.00744C5.64483 0.337891 5.30983 0.569538 5.12848 0.883577L0.136065 9.569C-0.0453682 9.88304 -0.0453682 10.2513 0.13615 10.5652ZM4.27006 13.9471L4.27005 6.20647L11.0031 2.32506L17.7288 6.20562V13.9469L10.9967 17.828L4.27006 13.9471Z" fill="#001DC4"/>
</svg>
