<svg width="15" height="19" viewBox="0 0 15 19" fill="none" xmlns="http://www.w3.org/2000/svg">
<path d="M5.55938 1.36009C5.01856 1.77476 4.3982 2.18113 3.70626 2.57921L3.71421 2.70361C3.76193 2.70361 3.8176 2.67044 3.89714 2.62897C3.97667 2.62068 4.02439 2.65385 4.02439 2.73679L4.15164 2.66215L4.21527 2.65385L4.22322 2.71191C4.23118 2.76996 3.79374 3.12657 2.92683 3.76516L2.99841 3.88127L2.93478 3.88956L2.79958 3.8398C2.79958 3.88127 2.7439 3.90615 2.61665 3.91444L2.6246 3.98079L2.76776 4.14665C2.72004 4.14665 2.65642 4.13836 2.57688 4.10519C2.29851 4.13006 2.02015 4.34569 1.74973 4.74377L1.82131 4.85988C2.05991 4.63596 2.19512 4.51985 2.23489 4.51985L2.25079 4.70231C2.21103 4.70231 2.1474 4.73548 2.06787 4.77695L2.21898 5.00916C2.5053 4.68572 2.81548 4.41204 3.16543 4.18812C3.3404 4.23788 3.42789 4.28764 3.42789 4.35399L3.55514 4.34569C4.48568 3.62417 5.40827 3.10999 6.32291 2.78655L6.33086 2.91095C6.16384 3.17633 6.04454 3.30903 5.98091 3.31732C5.98886 3.40855 6.02068 3.48319 6.0684 3.55783C6.0843 3.72369 5.67073 4.81012 4.82768 6.83369C2.90297 11.5277 1.29639 14.9943 0 17.2501C0 17.2916 0.0318132 17.3579 0.0715799 17.4326C0.389714 17.3496 0.596501 17.275 0.683987 17.1921L0.755567 17.1838L0.763521 17.3082L0.882821 17.2999L1.01007 17.2252C1.01007 17.2667 1.05779 17.2833 1.13733 17.275L1.14528 17.3994C1.15323 17.5238 1.08961 17.7145 0.938494 17.9716C0.803288 18.1292 0.668081 18.4526 0.516967 18.9419L0.524921 19L0.644221 18.9917C1.16119 18.3863 1.55885 17.7892 1.82927 17.2086C3.34836 16.7442 4.50159 16.2881 5.30488 15.8402C6.10816 15.7656 6.72853 15.55 7.1421 15.1851L7.13415 15.1187L6.83192 15.21L6.76034 15.2183L6.75239 15.1519C7.34093 15.0607 7.75451 14.9197 7.9772 14.7372C9.13043 13.8084 9.99735 13.1532 10.5859 12.7634C12.4072 11.3702 13.2662 10.0266 13.1628 8.74946C13.1548 8.61677 12.7492 8.09429 11.9618 7.18202C11.9459 7.00786 12.2243 6.75906 12.781 6.42733L14.3637 4.976C14.7137 4.50327 14.9284 3.74029 15 2.68704L14.9761 2.43824C14.9125 1.70013 14.4035 1.10301 13.4332 0.646878C12.8606 0.240506 11.8346 0.0248791 10.3552 0C9.13839 0.116096 7.53181 0.563935 5.55938 1.36009ZM14.0854 1.46791L14.0376 1.59231L12.272 0.821031C13.4491 0.870789 14.0536 1.08642 14.0854 1.46791ZM6.94327 6.5766C7.06257 5.89654 7.19777 5.50676 7.34889 5.41553L8.66914 2.32212C8.65323 2.13138 8.9316 1.98209 9.5122 1.88258L9.70308 1.86599L9.71898 2.04015C10.2916 1.94892 10.6416 1.89916 10.7768 1.88258C11.8266 1.79135 12.3674 2.00698 12.4152 2.54604L12.5345 2.53775L12.5106 2.2226L12.6379 2.21431C12.948 2.38847 13.1151 2.6041 13.131 2.86119C13.1469 3.03535 13.0594 3.25097 12.8606 3.50807C12.781 3.51636 12.7333 3.45831 12.7253 3.33391L12.5981 3.3422L12.5663 3.7154C12.0334 4.54473 11.6516 4.96769 11.413 4.99257C11.1983 5.29943 11.0631 5.457 11.0074 5.46529C10.8404 5.67262 10.3871 6.02924 9.63945 6.52683C9.3929 6.55171 8.47826 6.91662 6.89555 7.63814C6.81601 7.59667 6.73648 7.58838 6.64104 7.59667L6.63309 7.48057C6.61718 7.24006 6.71262 6.9415 6.94327 6.5766ZM14.2524 2.76167L14.2603 2.87777C14.1967 2.88607 14.0774 2.68703 13.9024 2.28895L13.8945 2.17284C14.0058 2.15625 14.1251 2.35529 14.2524 2.76167ZM2.64051 4.23788L2.64846 4.29593C2.6087 4.29593 2.54507 4.32911 2.46554 4.37057L2.40191 4.37887L2.39396 4.26276L2.64051 4.23788ZM6.48197 4.13836L6.49788 4.32081C6.44221 4.32911 6.36267 4.41204 6.26723 4.5862L6.25928 4.4618C6.37063 4.32081 6.4263 4.213 6.4263 4.13836L6.48197 4.13836ZM5.89342 5.43212L5.91729 5.68092L5.85366 5.68921L5.8298 5.44041L5.89342 5.43212ZM5.74231 5.87996C5.72641 6.08729 5.67868 6.1951 5.57529 6.2034L5.51166 6.21169C5.58324 6.0707 5.62301 5.97118 5.61506 5.89655L5.74231 5.87996ZM5.47985 6.52684L5.4878 6.58489L5.37646 6.78393L5.25716 6.79223L5.2492 6.73417C5.3685 6.72588 5.42418 6.65953 5.41622 6.53513L5.47985 6.52684ZM5.20944 7.10737L5.17762 7.41422L5.114 7.42252L5.09014 7.11566L5.20944 7.10737ZM11.6596 7.33129L11.9221 7.49716C11.93 7.58009 11.8902 7.62985 11.8107 7.63814C11.6994 7.5635 11.6119 7.53033 11.5483 7.53033L11.5323 7.34788L11.6596 7.33129ZM6.60923 8.03622L6.61718 8.15233L6.37063 8.17721L6.36267 8.0611L6.60923 8.03622ZM10.6813 8.46748C10.8563 8.55041 10.9438 8.63334 10.9517 8.69969L10.9597 8.75774C10.7927 8.77433 10.6416 8.6831 10.4984 8.48406L10.6813 8.46748ZM5.43213 9.81099C6.14793 9.74465 7.27731 9.39633 8.8123 8.76603L9.18611 8.73286C9.96554 8.66652 10.5461 8.81579 10.9279 9.19729L10.9517 9.44609C10.6654 10.3086 10.3473 10.8062 10.0053 10.9638L8.41463 12.2824C7.22959 13.0951 6.59332 13.5015 6.49788 13.5098C4.61294 14.5962 3.43584 15.1519 2.9825 15.1934L2.91092 15.2017C2.97455 14.9694 3.80965 13.1781 5.43213 9.81099ZM7.15005 9.10606L7.15801 9.16411L6.9035 9.18899L6.89555 9.13094L7.15005 9.10606ZM12.8606 8.84068L12.9003 9.32998C12.8446 9.46268 12.789 9.52902 12.7253 9.52902L12.6538 8.66652C12.789 8.72457 12.8526 8.78262 12.8606 8.84068ZM3.18134 13.12C3.1018 13.543 3.01432 13.7586 2.92683 13.7669L2.91888 13.7089C2.90297 13.4932 2.99046 13.3025 3.18134 13.12ZM4.772 15.4587C5.2333 15.3675 6.49788 14.6709 8.5737 13.3854L8.58165 13.5015C8.58961 13.5513 8.40668 13.7089 8.04878 13.9825C6.99099 14.5216 6.37063 14.8948 6.1877 15.0855C5.04242 15.5002 4.47773 15.7573 4.48568 15.8568C3.46766 16.2798 2.79958 16.5866 2.48144 16.7774C2.40986 16.7857 2.29852 16.7525 2.15536 16.6862C2.13945 16.4705 2.22694 16.2964 2.43372 16.1554C2.6087 16.1388 2.78367 16.1637 2.94274 16.2383C3.13362 16.1388 3.4597 16.0227 3.92895 15.9066L3.921 15.7822L3.54719 15.8154C3.59491 15.749 3.95281 15.5749 4.6368 15.2846L4.82768 15.268L4.83563 15.3261C4.5175 15.3509 4.33457 15.4587 4.2948 15.6329C4.30276 15.7075 4.34252 15.749 4.42206 15.7407C4.6527 15.5749 4.772 15.4836 4.772 15.4587ZM2.81548 13.9577L2.82344 14.0157C2.83139 14.0986 2.79162 14.1484 2.71209 14.1567L2.70414 14.0986C2.69618 14.024 2.73595 13.9742 2.81548 13.9577ZM5.79003 14.8036C5.63892 14.8202 5.36055 14.9446 4.93902 15.1934L4.8754 15.2017L4.86744 15.0773C5.16967 15.0524 5.43213 14.928 5.64687 14.7041C5.73436 14.6875 5.78208 14.7289 5.79003 14.8036ZM2.70414 15.6993L2.89502 15.6827L2.90297 15.749C2.85525 15.749 2.79958 15.7822 2.72004 15.8237L2.60074 15.8319C2.59279 15.7739 2.6246 15.7241 2.70414 15.6993ZM1.43955 16.4374L1.57476 16.4954C1.52704 16.8686 1.42365 17.0594 1.24072 17.0759C1.09756 17.0096 0.970308 16.9847 0.851007 16.993L0.835101 16.8106C0.827147 16.7359 0.866914 16.6945 0.954401 16.6696C1.03393 16.6613 1.08165 16.7193 1.08961 16.8437C1.30435 16.5701 1.42365 16.4374 1.43955 16.4374Z" fill="#001DC4"/>
</svg>
