<svg width="21" height="16" viewBox="0 0 21 16" fill="none" xmlns="http://www.w3.org/2000/svg">
<path d="M4.20361 2.19678H2.9585V13.8789H4.20361V15.4536H0.929688V0.62207H4.20361V2.19678ZM9.73779 5.771C9.73779 5.39502 9.8623 5.07764 10.1113 4.81885C10.3604 4.55518 10.707 4.42334 11.1514 4.42334C11.5908 4.42334 11.9351 4.55273 12.1841 4.81152C12.438 5.07031 12.5649 5.39014 12.5649 5.771C12.5649 6.15186 12.4355 6.46924 12.1768 6.72314C11.9229 6.97217 11.5811 7.09668 11.1514 7.09668C10.7168 7.09668 10.3726 6.96973 10.1187 6.71582C9.86475 6.46191 9.73779 6.14697 9.73779 5.771ZM12.0156 12.8389C12.0156 13.3955 11.8765 13.9595 11.5981 14.5308C11.3247 15.1021 10.9683 15.583 10.5288 15.9736L9.45215 15.417C9.6377 15.0654 9.79395 14.6968 9.9209 14.311C10.0479 13.9302 10.1113 13.4712 10.1113 12.9341V11.2202H12.0229L12.0156 12.8389ZM17.4473 0.62207H20.7285V15.4536H17.4473V13.8789H18.6997V2.19678H17.4473V0.62207Z" fill="#001DC4"/>
</svg>
